<?xml version="1.0" encoding="iso-8859-1"?>
<!-- Uploaded to: SVG Repo, www.svgrepo.com, Generator: SVG Repo Mixer Tools -->
<svg height="800px" width="800px" version="1.1" id="Layer_1" xmlns="http://www.w3.org/2000/svg" xmlns:xlink="http://www.w3.org/1999/xlink" 
	 viewBox="0 0 512 512" xml:space="preserve">
<path style="fill:#FF2E48;" d="M68.335,213.825c-2.997-7.513-4.645-15.853-4.645-24.434c0-36.223,29.366-65.589,65.589-65.589
	v90.024H68.335V213.825z"/>
<path style="fill:#FF7731;" d="M447.679,212.143c9.194-12.239,14.641-27.563,14.641-44.049c0-40.444-32.786-73.231-73.231-73.231
	c-2.118,0-4.21,0.11-6.283,0.287c-11.388-25.656-37.07-43.559-66.949-43.559s-55.56,17.904-66.949,43.559
	c-2.072-0.176-4.164-0.287-6.283-0.287c-40.444,0-73.231,32.786-73.231,73.231c0,17.076,5.844,31.595,15.643,44.049"/>
<path style="fill:#BDCED4;" d="M501.801,213.825c0,135.752-110.048,246.584-245.801,246.584S10.199,349.578,10.199,213.825H501.801z
	"/>
<path d="M315.858,110.048c-5.633,0-10.199,4.566-10.199,10.199v49.67c0,5.633,4.566,10.199,10.199,10.199
	c5.633,0,10.199-4.566,10.199-10.199v-49.67C326.057,114.615,321.491,110.048,315.858,110.048z"/>
<path d="M391.429,149.969l-21.014,21.014c-3.983,3.983-3.983,10.441,0,14.425c1.992,1.992,4.602,2.987,7.212,2.987
	c2.61,0,5.221-0.995,7.212-2.987l21.014-21.014c3.983-3.983,3.983-10.441,0-14.425C401.87,145.986,395.412,145.986,391.429,149.969z
	"/>
<path d="M244.109,149.969c-3.983-3.983-10.441-3.983-14.425,0c-3.983,3.983-3.983,10.441,0,14.425l21.014,21.014
	c1.992,1.992,4.602,2.987,7.212,2.987c2.61,0,5.221-0.995,7.212-2.987c3.983-3.983,3.983-10.441,0-14.425L244.109,149.969z"/>
<path d="M501.801,203.626h-37.148c5.175-11.009,7.866-23.05,7.866-35.532c0-46.004-37.426-83.431-83.43-83.431
	c-0.036,0-0.07,0-0.106,0c-14.565-26.501-42.548-43.272-73.125-43.272c-30.576,0-58.559,16.772-73.124,43.272
	c-0.036,0-0.071,0-0.106,0c-46.003,0-83.431,37.427-83.431,83.431c0,12.565,2.808,24.459,8.362,35.532h-28.081v-79.825
	c0-5.633-4.566-10.199-10.199-10.199c-41.79,0-75.788,33.998-75.788,75.789c0,4.762,0.456,9.548,1.336,14.235H10.199
	C4.566,203.626,0,208.192,0,213.825c0,141.59,114.841,256.783,256,256.783s256-115.193,256-256.783
	C512,208.192,507.434,203.626,501.801,203.626z M179.596,168.094c0-34.756,28.276-63.032,63.032-63.032
	c1.667,0,3.439,0.082,5.418,0.25c4.325,0.366,8.423-2.05,10.187-6.025c10.111-22.779,32.731-37.498,57.625-37.498
	c24.895,0,47.515,14.718,57.627,37.498c1.764,3.975,5.855,6.396,10.187,6.025c1.979-0.168,3.751-0.25,5.418-0.25
	c34.756,0,63.031,28.276,63.031,63.032c0,12.848-3.76,25.069-10.893,35.532H191.381
	C183.456,192.745,179.596,181.094,179.596,168.094z M73.889,189.391c0-27.058,19.505-49.648,45.191-54.449v68.684H75.708
	C74.51,199.015,73.889,194.19,73.889,189.391z M491.385,224.024C486.038,349.65,382.502,450.21,256,450.21
	S25.962,349.65,20.615,224.024H491.385z"/>
<path d="M256,424.76c34.326,0,68.458-8.327,98.704-24.078c29.264-15.241,55.011-37.433,74.46-64.178
	c3.313-4.556,2.305-10.935-2.251-14.247c-4.556-3.312-10.934-2.305-14.247,2.251c-36.36,50.003-94.927,79.856-156.666,79.856
	c-5.633,0-10.199,4.566-10.199,10.199S250.367,424.76,256,424.76z"/>
<path d="M436.825,305.377c1.385,0.639,2.837,0.941,4.269,0.941c3.854,0,7.544-2.197,9.266-5.927c1.621-3.51,3.165-7.11,4.59-10.7
	c2.079-5.235-0.481-11.164-5.717-13.243c-5.235-2.079-11.164,0.481-13.243,5.717c-1.289,3.246-2.685,6.502-4.15,9.675
	C429.479,296.956,431.711,303.016,436.825,305.377z"/>
</svg>